<svg
    viewBox="0 0 48 48"
    fill="none"
    xmlns="http://www.w3.org/2000/svg"
  >
    <title>GoogleDrive</title>
    <rect width="48" height="48" fill="#EEEEEE" />
    <g clip-path="url(#clip0_43_2)">
      <path
        d="M10.4192 34.504L11.8305 36.9416C12.1237 37.4547 12.5452 37.8579 13.0401 38.1512L18.0802 29.4272H8C8 29.9954 8.14662 30.5636 8.43986 31.0767L10.4192 34.504Z"
        fill="#0066DA"
      />
      <path
        d="M24 19.1636L18.9599 10.4397C18.4651 10.7329 18.0435 11.1361 17.7503 11.6493L8.43986 27.7776C8.15201 28.2797 8.00038 28.8483 8 29.4271H18.0802L24 19.1636Z"
        fill="#00AC47"
      />
      <path
        d="M34.9598 38.1512C35.4546 37.8579 35.8761 37.4547 36.1694 36.9416L36.7559 35.9335L39.56 31.0767C39.8532 30.5636 39.9999 29.9954 39.9999 29.4272H29.9189L32.064 33.6426L34.9598 38.1512Z"
        fill="#EA4335"
      />
      <path
        d="M24.0001 19.1638L29.0401 10.4399C28.5453 10.1466 27.9771 10 27.3907 10H20.6094C20.023 10 19.4548 10.1649 18.96 10.4399L24.0001 19.1638Z"
        fill="#00832D"
      />
      <path
        d="M29.9198 29.4272H18.0801L13.04 38.1512C13.5349 38.4444 14.103 38.591 14.6895 38.591H33.3104C33.8969 38.591 34.465 38.4261 34.9599 38.1512L29.9198 29.4272Z"
        fill="#2684FC"
      />
      <path
        d="M34.9049 19.7135L30.2497 11.6493C29.9565 11.1361 29.5349 10.7329 29.0401 10.4397L24 19.1636L29.9198 29.4271H39.9817C39.9817 28.8589 39.8351 28.2908 39.5418 27.7776L34.9049 19.7135Z"
        fill="#FFBA00"
      />
    </g>
    <defs>
      <clipPath id="clip0_43_2">
        <rect
          width="32"
          height="28.5911"
          fill="white"
          transform="translate(8 10)"
        />
      </clipPath>
    </defs>
  </svg>
