<svg
    viewBox="0 0 48 48"
    fill="none"
    xmlns="http://www.w3.org/2000/svg"
  >
    <title>Google Cloud Storage</title>
    <rect width="48" height="48" fill="#EEEEEE" />
    <path
      d="M38.2222 22.2222H9.77778C8.8 22.2222 8 21.4222 8 20.4444V9.77778C8 8.8 8.8 8 9.77778 8H38.2222C39.2 8 40 8.8 40 9.77778V20.4444C40 21.4222 39.2 22.2222 38.2222 22.2222ZM11.5556 18.6667H36.4444V11.5556H11.5556V18.6667Z"
      fill="#FBBC04"
    />
    <path
      d="M38.2222 39.9467H9.77778C8.8 39.9467 8 39.1467 8 38.1689V27.5556C8 26.5778 8.8 25.7778 9.77778 25.7778H38.2222C39.2 25.7778 40 26.5778 40 27.5556V38.1689C40 39.1467 39.2 39.9467 38.2222 39.9467ZM11.5556 36.3912H36.4444V29.3334H11.5556V36.3912Z"
      fill="#34A853"
    />
    <path
      d="M18.6664 38.6488C17.6887 38.6488 16.8887 39.1999 16.8887 38.2222V28.3911C16.8887 27.4133 17.6887 26.6133 18.6664 26.6133C19.6442 26.6133 20.4442 27.4133 20.4442 28.3911V38.2222C20.4442 39.1999 19.6442 38.6488 18.6664 38.6488Z"
      fill="#34A853"
    />
    <path
      d="M18.6664 21.6885C17.6887 21.6885 16.8887 20.8885 16.8887 19.9108V10.0263C16.8887 9.04853 17.6887 8.24854 18.6664 8.24854C19.6442 8.24854 20.4442 9.04853 20.4442 10.0263V19.9108C20.4442 20.8885 19.6442 21.6885 18.6664 21.6885Z"
      fill="#FBBC04"
    />
    <mask
      id="mask0_25_2"
      style={{ maskType: "luminance" }}
      maskUnits="userSpaceOnUse"
      x="8"
      y="8"
      width="32"
      height="15"
    >
      <path
        d="M38.2222 22.2222H9.77778C8.8 22.2222 8 21.4222 8 20.4444V9.77778C8 8.8 8.8 8 9.77778 8H38.2222C39.2 8 40 8.8 40 9.77778V20.4444C40 21.4222 39.2 22.2222 38.2222 22.2222ZM11.5556 18.6667H36.4444V11.5556H11.5556V18.6667Z"
        fill="white"
      />
    </mask>
    <g mask="url(#mask0_25_2)">
      <path
        d="M38.2222 22.2222H36.4444V11.5556H8V9.77778C8 8.8 8.8 8 9.77778 8H38.2222C39.2 8 40 8.8 40 9.77778V20.4444C40 21.4222 39.2 22.2222 38.2222 22.2222Z"
        fill="#EA4335"
      />
    </g>
    <mask
      id="mask1_25_2"
      style={{ maskType: "luminance" }}
      maskUnits="userSpaceOnUse"
      x="8"
      y="25"
      width="32"
      height="15"
    >
      <path
        d="M38.2222 39.9467H9.77778C8.8 39.9467 8 39.1467 8 38.1689V27.5556C8 26.5778 8.8 25.7778 9.77778 25.7778H38.2222C39.2 25.7778 40 26.5778 40 27.5556V38.1689C40 39.1467 39.2 39.9467 38.2222 39.9467ZM11.5556 36.3912H36.4444V29.3334H11.5556V36.3912Z"
        fill="white"
      />
    </mask>
    <g mask="url(#mask1_25_2)">
      <path
        d="M38.2222 39.9467H36.4444V29.3334H8V27.5556C8 26.5778 8.8 25.7778 9.77778 25.7778H38.2222C39.2 25.7778 40 26.5778 40 27.5556V38.1689C40 39.1467 39.2 39.9467 38.2222 39.9467Z"
        fill="#4285F4"
      />
    </g>
  </svg>
