<svg
    viewBox="0 0 48 48"
    fill="none"
    xmlns="http://www.w3.org/2000/svg"
  >
    <title>Netlify Blobs</title>
    <rect width="48" height="48" fill="#EEEEEE" />
    <path
      d="M15.8284 34.72H15.485L13.771 33.006V32.6626L16.3912 30.0424H18.2065L18.4486 30.2845V32.0998L15.8284 34.72ZM13.771 15.3342V14.9908L15.485 13.2769H15.8284L18.4486 15.8971V17.7123L18.2065 17.9544H16.3912L13.771 15.3342Z"
      fill="#05BDBA"
    />
    <path
      d="M28.8589 29.1954H26.3654L26.1571 28.9871V23.1499C26.1571 22.1114 25.749 21.3065 24.4966 21.2783C23.852 21.2614 23.1147 21.2783 22.3267 21.3093L22.2084 21.4303V28.9843L22.0001 29.1925H19.5066L19.2983 28.9843V19.0129L19.5066 18.8044H25.1185C27.2998 18.8044 29.0672 20.5719 29.0672 22.7531V28.9871L28.8589 29.1954Z"
      fill="#014847"
    />
    <path
      d="M16.1827 25.458H6.20826L6 25.2497V22.7504L6.20826 22.5421H16.1827L16.3909 22.7504V25.2497L16.1827 25.458ZM42.1599 25.458H32.1855L31.9772 25.2497V22.7504L32.1855 22.5421H42.1599L42.3682 22.7504V25.2497L42.1599 25.458ZM22.7458 15.689V8.20826L22.9541 8H25.4534L25.6617 8.20826V15.689L25.4534 15.8973H22.9541L22.7458 15.689ZM22.7458 39.7919V32.3111L22.9541 32.1029H25.4534L25.6617 32.3111V39.7919L25.4534 40H22.9541L22.7458 39.7919Z"
      fill="#05BDBA"
    />
  </svg>
