<svg
    viewBox="0 0 48 48"
    fill="none"
    xmlns="http://www.w3.org/2000/svg"
  >
    <title>Azure Blob Storage</title>
    <rect width="48" height="48" fill="#EEEEEE" />
    <path
      d="M19.1126 10.1812H27.792L18.782 36.8769C18.6894 37.1512 18.5131 37.3896 18.2779 37.5585C18.0427 37.7273 17.7605 37.8182 17.471 37.8182H10.7163C10.4969 37.8183 10.2807 37.7661 10.0855 37.6659C9.89035 37.5658 9.72181 37.4207 9.59386 37.2425C9.46591 37.0643 9.38222 36.8582 9.34972 36.6413C9.31722 36.4243 9.33684 36.2028 9.40697 35.9949L17.8013 11.1226C17.8939 10.8481 18.0702 10.6097 18.3054 10.4407C18.5407 10.2718 18.823 10.1813 19.1126 10.1812Z"
      fill="url(#paint0_linear_32_21)"
    />
    <path
      d="M31.7248 28.0869H17.9614C17.8335 28.0868 17.7084 28.1252 17.6026 28.1971C17.4968 28.269 17.4151 28.3712 17.3681 28.4902C17.3212 28.6092 17.3112 28.7397 17.3394 28.8645C17.3677 28.9893 17.4328 29.1027 17.5264 29.1899L26.3704 37.4446C26.6279 37.6848 26.967 37.8183 27.3191 37.8182H35.1124L31.7248 28.0869Z"
      fill="#0078D4"
    />
    <path
      d="M19.1128 10.1814C18.82 10.1803 18.5346 10.2728 18.2981 10.4455C18.0616 10.6181 17.8866 10.8619 17.7985 11.1411L9.41749 35.9724C9.34265 36.181 9.31915 36.4046 9.34899 36.6242C9.37882 36.8438 9.46111 37.053 9.5889 37.2341C9.71668 37.4152 9.8862 37.5628 10.0831 37.6645C10.28 37.7662 10.4985 37.819 10.7202 37.8184H17.6492C17.9072 37.7723 18.1484 37.6585 18.3481 37.4887C18.5478 37.3188 18.6989 37.099 18.7858 36.8517L20.4572 31.9261L26.4272 37.4944C26.6773 37.7013 26.9912 37.8158 27.3158 37.8184H35.0802L31.6748 28.0871L21.7478 28.0894L27.8235 10.1814H19.1128Z"
      fill="url(#paint1_linear_32_21)"
    />
    <path
      d="M30.1982 11.1214C30.1057 10.8474 29.9297 10.6093 29.6948 10.4407C29.4599 10.2721 29.178 10.1814 28.8888 10.1814H19.2158C19.505 10.1814 19.7868 10.2721 20.0217 10.4408C20.2566 10.6094 20.4327 10.8474 20.5252 11.1214L28.9198 35.9947C28.99 36.2026 29.0097 36.4242 28.9772 36.6412C28.9447 36.8582 28.8611 37.0644 28.7331 37.2426C28.6051 37.4209 28.4366 37.5661 28.2414 37.6663C28.0462 37.7665 27.8299 37.8187 27.6105 37.8187H37.2838C37.5032 37.8187 37.7194 37.7664 37.9146 37.6662C38.1098 37.566 38.2783 37.4207 38.4062 37.2425C38.5341 37.0643 38.6178 36.8581 38.6502 36.6412C38.6827 36.4242 38.663 36.2026 38.5928 35.9947L30.1982 11.1214Z"
      fill="url(#paint2_linear_32_21)"
    />
    <defs>
      <linearGradient
        id="paint0_linear_32_21"
        x1="22.276"
        y1="12.2292"
        x2="13.2623"
        y2="38.8579"
        gradientUnits="userSpaceOnUse"
      >
        <stop stop-color="#114A8B" />
        <stop offset="1" stop-color="#0669BC" />
      </linearGradient>
      <linearGradient
        id="paint1_linear_32_21"
        x1="25.0918"
        y1="24.6391"
        x2="23.0068"
        y2="25.3441"
        gradientUnits="userSpaceOnUse"
      >
        <stop stop-opacity="0.3" />
        <stop offset="0.071" stop-opacity="0.2" />
        <stop offset="0.321" stop-opacity="0.1" />
        <stop offset="0.623" stop-opacity="0.05" />
        <stop offset="1" stop-opacity="0" />
      </linearGradient>
      <linearGradient
        id="paint2_linear_32_21"
        x1="23.9448"
        y1="11.4527"
        x2="33.8392"
        y2="37.8131"
        gradientUnits="userSpaceOnUse"
      >
        <stop stop-color="#3CCBF4" />
        <stop offset="1" stop-color="#2892DF" />
      </linearGradient>
    </defs>
  </svg>
