<svg
    viewBox="0 0 48 48"
    fill="none"
    xmlns="http://www.w3.org/2000/svg"
  >
    <title>Box</title>
    <rect width="48" height="48" fill="#0071F7" />
    <path
      d="M39.7179 30.3396C40.1173 30.8989 40.0374 31.6179 39.5581 32.0174C38.9988 32.4169 38.1999 32.337 37.8004 31.8576L35.0041 28.2624L32.2877 31.7777C31.8883 32.337 31.0893 32.337 30.5301 31.9375C29.9708 31.538 29.8909 30.819 30.2904 30.2597L33.4861 26.1052L30.2904 21.9508C29.8909 21.3915 30.0507 20.5926 30.5301 20.1931C31.0893 19.7936 31.8883 19.9534 32.2877 20.4328L35.0041 24.028L37.8004 20.5926C38.1999 20.0333 38.9189 19.9534 39.5581 20.3529C40.1173 20.7524 40.1173 21.5513 39.7179 22.1106L36.602 26.1851L39.7179 30.3396ZM25.1772 29.8603C23.0999 29.8603 21.4222 28.2624 21.4222 26.1851C21.4222 24.1878 23.0999 22.51 25.1772 22.51C27.2544 22.51 28.9322 24.1878 28.9322 26.1851C28.8523 28.2624 27.1745 29.8603 25.1772 29.8603ZM14.1518 29.8603C12.0746 29.8603 10.3968 28.2624 10.3968 26.1851C10.3968 24.1878 12.0746 22.51 14.1518 22.51C16.2291 22.51 17.9068 24.1878 17.9068 26.1851C17.9068 28.2624 16.2291 29.8603 14.1518 29.8603ZM25.1772 20.1132C22.8603 20.1132 20.783 21.3915 19.7444 23.309C18.7058 21.3915 16.6285 20.1132 14.2317 20.1132C12.7936 20.1132 11.5153 20.5926 10.4767 21.3116V16.1984C10.4767 15.5593 9.91745 15 9.2783 15C8.55926 15 8 15.5593 8 16.1984V26.265C8.07989 29.6206 10.7963 32.2571 14.1518 32.2571C16.5486 32.2571 18.6259 30.8989 19.6645 28.9814C20.7031 30.8989 22.7804 32.2571 25.0973 32.2571C28.5327 32.2571 31.329 29.5407 31.329 26.1052C31.4089 22.8296 28.6126 20.1132 25.1772 20.1132Z"
      fill="white"
    />
  </svg>
