<svg
    viewBox="0 0 48 48"
    fill="none"
    xmlns="http://www.w3.org/2000/svg"
  >
    <title>MinIO</title>
    <rect width="48" height="48" fill="#CF163D" />
    <path
      d="M25.9348 8.00799C25.106 7.94426 24.3348 8.26706 23.7733 8.78399C23.221 9.30457 22.8976 10.023 22.8742 10.7816C22.8507 11.5403 23.1291 12.2772 23.6483 12.8309L28.1925 17.5652C28.6056 18.0077 28.9144 18.537 29.0962 19.1144C29.2781 19.6917 29.3284 20.3024 29.2435 20.9018C29.1586 21.5011 28.9406 22.0738 28.6056 22.578C28.2705 23.0821 27.8269 23.5048 27.3072 23.8152L26.6899 24.1329V17.7137C23.9842 19.1077 21.6218 21.085 19.7732 23.5028C17.9246 25.9207 16.6358 28.7189 16 31.6953V31.7188L24.7316 27.2813V37.4427L26.6977 40V26.2423L27.8931 25.6251C28.7186 25.209 29.4354 24.6055 29.986 23.8629C30.5366 23.1203 30.9057 22.2591 31.0639 21.3483C31.2221 20.4374 31.1649 19.5022 30.8969 18.6174C30.629 17.7326 30.1576 16.9228 29.5207 16.2528L25.026 11.5523C24.8469 11.3588 24.7516 11.1024 24.7609 10.839C24.7701 10.5755 24.8832 10.3264 25.0753 10.146C25.2695 9.96721 25.5262 9.87215 25.79 9.88141C26.0537 9.89067 26.3032 10.0035 26.4843 10.1955L27.1067 10.8439L27.0987 10.8517L32.5259 16.5105C32.5329 16.5179 32.5414 16.5238 32.5508 16.5279C32.5602 16.5319 32.5703 16.534 32.5805 16.534C32.5908 16.534 32.6009 16.5319 32.6103 16.5279C32.6197 16.5238 32.6282 16.5179 32.6352 16.5105C32.6451 16.4969 32.6504 16.4805 32.6504 16.4637C32.6504 16.4468 32.6451 16.4304 32.6352 16.4168L28.4477 9.56013L28.2499 9.75013L28.4477 9.55746C27.6512 8.52346 26.7635 8.07173 25.9348 8.00799ZM24.7316 21.1616V25.1537L19.1952 28.0183C20.1138 26.0727 21.3623 24.3009 22.8853 22.7813C23.465 22.202 24.0817 21.6609 24.7316 21.1616Z"
      fill="white"
    />
  </svg>
