<svg
    viewBox="0 0 48 48"
    fill="none"
    xmlns="http://www.w3.org/2000/svg"
  >
    <title>OneDrive</title>
    <rect width="48" height="48" fill="#EEEEEE" />
    <path
      d="M16.8426 16.2537C11.9507 16.2539 8.29381 20.2583 8.01855 24.7193C8.18907 25.6805 8.74904 27.5786 9.62631 27.4812C10.7227 27.3592 13.4842 27.4812 15.8396 23.2171C17.5602 20.1022 21.0995 16.2535 16.8426 16.2537Z"
      fill="url(#paint0_radial_44_9)"
    />
    <path
      d="M15.7119 17.9188C14.0675 20.5222 11.8538 24.253 11.1068 25.4269C10.2187 26.8225 7.86695 26.2295 8.06177 24.2294C8.04268 24.3916 8.02783 24.5554 8.0176 24.7201C7.69605 29.9242 11.822 34.2459 16.9564 34.2459C22.6151 34.2459 36.1108 27.1953 34.745 20.1308C33.3054 15.9785 29.2595 13 24.674 13C20.0888 13 17.1501 15.6417 15.7119 17.9188Z"
      fill="url(#paint1_radial_44_9)"
    />
    <path
      d="M15.7119 17.9188C14.0675 20.5222 11.8538 24.253 11.1068 25.4269C10.2187 26.8225 7.86695 26.2295 8.06177 24.2294C8.04268 24.3916 8.02783 24.5554 8.0176 24.7201C7.69605 29.9242 11.822 34.2459 16.9564 34.2459C22.6151 34.2459 36.1108 27.1953 34.745 20.1308C33.3054 15.9785 29.2595 13 24.674 13C20.0888 13 17.1501 15.6417 15.7119 17.9188Z"
      fill="url(#paint2_radial_44_9)"
    />
    <path
      d="M15.7119 17.9188C14.0675 20.5222 11.8538 24.253 11.1068 25.4269C10.2187 26.8225 7.86695 26.2295 8.06177 24.2294C8.04268 24.3916 8.02783 24.5554 8.0176 24.7201C7.69605 29.9242 11.822 34.2459 16.9564 34.2459C22.6151 34.2459 36.1108 27.1953 34.745 20.1308C33.3054 15.9785 29.2595 13 24.674 13C20.0888 13 17.1501 15.6417 15.7119 17.9188Z"
      fill="url(#paint3_radial_44_9)"
    />
    <path
      d="M15.7119 17.9188C14.0675 20.5222 11.8538 24.253 11.1068 25.4269C10.2187 26.8225 7.86695 26.2295 8.06177 24.2294C8.04268 24.3916 8.02783 24.5554 8.0176 24.7201C7.69605 29.9242 11.822 34.2459 16.9564 34.2459C22.6151 34.2459 36.1108 27.1953 34.745 20.1308C33.3054 15.9785 29.2595 13 24.674 13C20.0888 13 17.1501 15.6417 15.7119 17.9188Z"
      fill="url(#paint4_radial_44_9)"
    />
    <path
      d="M15.7119 17.9188C14.0675 20.5222 11.8538 24.253 11.1068 25.4269C10.2187 26.8225 7.86695 26.2295 8.06177 24.2294C8.04268 24.3916 8.02783 24.5554 8.0176 24.7201C7.69605 29.9242 11.822 34.2459 16.9564 34.2459C22.6151 34.2459 36.1108 27.1953 34.745 20.1308C33.3054 15.9785 29.2595 13 24.674 13C20.0888 13 17.1501 15.6417 15.7119 17.9188Z"
      fill="url(#paint5_radial_44_9)"
    />
    <path
      d="M16.8735 34.2481C16.8735 34.2481 30.3851 34.2747 32.677 34.2747C36.8362 34.2747 39.9984 30.8792 39.9984 26.9168C39.9984 22.9544 36.7725 19.5796 32.677 19.5796C28.5813 19.5796 26.2226 22.6435 24.4511 25.9882C22.3754 29.9074 19.7272 34.2012 16.8735 34.2481Z"
      fill="url(#paint6_linear_44_9)"
    />
    <path
      d="M16.8735 34.2481C16.8735 34.2481 30.3851 34.2747 32.677 34.2747C36.8362 34.2747 39.9984 30.8792 39.9984 26.9168C39.9984 22.9544 36.7725 19.5796 32.677 19.5796C28.5813 19.5796 26.2226 22.6435 24.4511 25.9882C22.3754 29.9074 19.7272 34.2012 16.8735 34.2481Z"
      fill="url(#paint7_radial_44_9)"
    />
    <path
      d="M16.8735 34.2481C16.8735 34.2481 30.3851 34.2747 32.677 34.2747C36.8362 34.2747 39.9984 30.8792 39.9984 26.9168C39.9984 22.9544 36.7725 19.5796 32.677 19.5796C28.5813 19.5796 26.2226 22.6435 24.4511 25.9882C22.3754 29.9074 19.7272 34.2012 16.8735 34.2481Z"
      fill="url(#paint8_radial_44_9)"
    />
    <defs>
      <radialGradient
        id="paint0_radial_44_9"
        cx="0"
        cy="0"
        r="1"
        gradientUnits="userSpaceOnUse"
        gradientTransform="translate(8.62528 17.4228) rotate(50.1526) scale(10.0854 16.7285)"
      >
        <stop stop-color="#4894FE" />
        <stop offset="0.695072" stop-color="#0934B3" />
      </radialGradient>
      <radialGradient
        id="paint1_radial_44_9"
        cx="0"
        cy="0"
        r="1"
        gradientUnits="userSpaceOnUse"
        gradientTransform="translate(35.7003 5.81103) rotate(130.923) scale(43.3681 32.1361)"
      >
        <stop offset="0.165327" stop-color="#23C0FE" />
        <stop offset="0.534" stop-color="#1C91FF" />
      </radialGradient>
      <radialGradient
        id="paint2_radial_44_9"
        cx="0"
        cy="0"
        r="1"
        gradientUnits="userSpaceOnUse"
        gradientTransform="translate(15.1699 17.9969) rotate(-139.986) scale(8.81715 20.1843)"
      >
        <stop stop-color="white" stop-opacity="0.4" />
        <stop offset="0.660528" stop-color="#ADC0FF" stop-opacity="0" />
      </radialGradient>
      <radialGradient
        id="paint3_radial_44_9"
        cx="0"
        cy="0"
        r="1"
        gradientUnits="userSpaceOnUse"
        gradientTransform="translate(24.7575 28.4182) rotate(-139.764) scale(9.93821 15.0933)"
      >
        <stop stop-color="#033ACC" />
        <stop offset="1" stop-color="#368EFF" stop-opacity="0" />
      </radialGradient>
      <radialGradient
        id="paint4_radial_44_9"
        cx="0"
        cy="0"
        r="1"
        gradientUnits="userSpaceOnUse"
        gradientTransform="translate(14.5863 12.3277) rotate(66.5713) scale(21.8067 23.5416)"
      >
        <stop offset="0.592618" stop-color="#3464E3" stop-opacity="0" />
        <stop offset="1" stop-color="#033ACC" stop-opacity="0.6" />
      </radialGradient>
      <radialGradient
        id="paint5_radial_44_9"
        cx="0"
        cy="0"
        r="1"
        gradientUnits="userSpaceOnUse"
        gradientTransform="translate(35.3507 8.07586) rotate(135) scale(32.077 50.2539)"
      >
        <stop stop-color="#4BFDE8" stop-opacity="0.898039" />
        <stop offset="0.543937" stop-color="#4BFDE8" stop-opacity="0" />
      </radialGradient>
      <linearGradient
        id="paint6_linear_44_9"
        x1="28.4432"
        y1="34.2599"
        x2="28.4432"
        y2="19.7538"
        gradientUnits="userSpaceOnUse"
      >
        <stop stop-color="#0086FF" />
        <stop offset="0.49" stop-color="#00BBFF" />
      </linearGradient>
      <radialGradient
        id="paint7_radial_44_9"
        cx="0"
        cy="0"
        r="1"
        gradientUnits="userSpaceOnUse"
        gradientTransform="translate(20.8629 21.3077) rotate(21.6324) scale(14.5353 27.525)"
      >
        <stop stop-color="white" stop-opacity="0.4" />
        <stop offset="0.785262" stop-color="white" stop-opacity="0" />
      </radialGradient>
      <radialGradient
        id="paint8_radial_44_9"
        cx="0"
        cy="0"
        r="1"
        gradientUnits="userSpaceOnUse"
        gradientTransform="translate(39.5464 18.4405) rotate(139.243) scale(19.9275 19.9951)"
      >
        <stop stop-color="#4BFDE8" stop-opacity="0.898039" />
        <stop offset="0.584724" stop-color="#4BFDE8" stop-opacity="0" />
      </radialGradient>
    </defs>
  </svg>
