<svg
    viewBox="0 0 48 48"
    fill="none"
    xmlns="http://www.w3.org/2000/svg"
  >
    <title>R2</title>
    <rect width="48" height="48" fill="#F38020" />
    <path
      d="M30.0129 30.7018C30.2068 30.0264 30.1317 29.4073 29.8065 28.9445C29.5064 28.5255 28.9998 28.2816 28.3932 28.2503L16.8427 28.1003C16.7739 28.1003 16.7051 28.0627 16.6676 28.0064C16.6301 27.9502 16.6238 27.8751 16.6426 27.8001C16.6801 27.6875 16.7927 27.6 16.9115 27.5937L28.5683 27.4436C29.9504 27.3811 31.4512 26.2617 31.9765 24.8921L32.6394 23.1536C32.6707 23.0786 32.677 23.0035 32.6582 22.9285C31.9078 19.5327 28.8747 17 25.2539 17C21.9144 17 19.0815 19.1575 18.0684 22.153C17.4118 21.6652 16.5738 21.4026 15.6732 21.4901C14.0661 21.6465 12.7841 22.9347 12.6215 24.5419C12.5839 24.9547 12.6152 25.3611 12.709 25.7364C10.0887 25.8114 8 27.9502 8 30.5892C8 30.8206 8.01876 31.0582 8.05003 31.2896C8.06879 31.4022 8.16259 31.4835 8.27516 31.4835H29.5939C29.7127 31.4835 29.8315 31.3959 29.8628 31.2771L30.0129 30.7018ZM33.6901 23.2787C33.59 23.2787 33.4774 23.2787 33.3711 23.2912C33.2961 23.2912 33.2335 23.3475 33.2023 23.4225L32.752 24.9859C32.5581 25.6613 32.6269 26.2804 32.9584 26.7432C33.2585 27.1622 33.7651 27.4061 34.378 27.4374L36.8356 27.5875C36.9107 27.5875 36.9795 27.625 37.0107 27.6813C37.0483 27.7375 37.0545 27.8251 37.042 27.8876C37.0045 28.0002 36.8919 28.0877 36.7669 28.094L34.2029 28.2441C32.8145 28.3066 31.3262 29.426 30.7946 30.7956L30.607 31.2709C30.5695 31.3647 30.6383 31.4585 30.7383 31.4585H39.5435C39.6435 31.4585 39.7373 31.3959 39.7686 31.2896C39.9187 30.7456 40 30.1702 40 29.5824C40 26.1116 37.1671 23.2787 33.6838 23.2787"
      fill="white"
    />
  </svg>
