<svg
    viewBox="0 0 48 48"
    fill="none"
    xmlns="http://www.w3.org/2000/svg"
  >
    <title>UploadThing</title>
    <rect width="48" height="48" fill="#DC2626" />
    <path
      d="M27.9668 11.6799C31.1012 9.09645 35.7367 9.54241 38.3203 12.677V12.676C40.904 15.8109 40.4569 20.4465 37.3223 23.0295C36.1218 24.0189 34.7014 24.5602 33.2607 24.6799C34.1149 27.4455 33.286 30.5748 30.9141 32.5295C28.4687 34.5454 25.1135 34.7081 22.5283 33.1975C22.1863 34.7448 21.3497 36.1948 20.0322 37.2805C16.8981 39.8639 12.263 39.4166 9.67969 36.2825C7.09633 33.1482 7.54275 28.5137 10.6777 25.9299C11.3232 25.3981 12.0342 25.0016 12.7754 24.7239C10.4773 21.602 10.9872 17.1946 14.0156 14.6985C17.15 12.115 21.7856 12.5609 24.3691 15.6956C24.7459 16.1533 25.0507 16.6456 25.2998 17.1565C25.3562 15.1051 26.2589 13.0877 27.9668 11.6799ZM18.8711 18.5247V26.0549C18.8711 26.9501 19.0813 27.7249 19.502 28.3792C19.9266 29.0295 20.52 29.5331 21.2812 29.8889C22.0427 30.241 22.9313 30.4172 23.9453 30.4172C24.9516 30.4172 25.8353 30.2409 26.5967 29.8889C27.3582 29.5331 27.9512 29.0297 28.376 28.3792C28.8045 27.7249 29.0186 26.9502 29.0186 26.0549V18.5247H25.8271V25.7795C25.8271 26.1429 25.7475 26.4682 25.5869 26.7551C25.4262 27.0383 25.204 27.2604 24.9209 27.4211C24.6379 27.5818 24.3125 27.6623 23.9453 27.6624C23.5817 27.6624 23.2558 27.5819 22.9688 27.4211C22.6857 27.2605 22.4644 27.0382 22.3037 26.7551C22.143 26.4682 22.0625 26.143 22.0625 25.7795V18.5247H18.8711Z"
      fill="white"
    />
  </svg>
